<mxfile host="app.diagrams.net" agent="Mozilla/5.0 (Windows NT 10.0; Win64; x64) AppleWebKit/537.36 (KHTML, like Gecko) Chrome/140.0.0.0 Safari/537.36" version="28.2.3">
  <diagram name="Page-1" id="zIqZ3de-ywM0V6ITHdWg">
    <mxGraphModel dx="1042" dy="510" grid="1" gridSize="10" guides="1" tooltips="1" connect="1" arrows="1" fold="1" page="1" pageScale="1" pageWidth="850" pageHeight="1100" math="0" shadow="0">
      <root>
        <mxCell id="0" />
        <mxCell id="1" parent="0" />
        <mxCell id="lfrtjuP_y-cq6lLT7jFH-2" style="edgeStyle=orthogonalEdgeStyle;rounded=0;orthogonalLoop=1;jettySize=auto;html=1;entryX=0.5;entryY=0;entryDx=0;entryDy=0;" edge="1" parent="1" source="lfrtjuP_y-cq6lLT7jFH-3" target="lfrtjuP_y-cq6lLT7jFH-6">
          <mxGeometry relative="1" as="geometry" />
        </mxCell>
        <mxCell id="lfrtjuP_y-cq6lLT7jFH-3" value="taj tiffin&#39;s" style="rounded=0;whiteSpace=wrap;html=1;" vertex="1" parent="1">
          <mxGeometry x="320" y="10" width="120" height="60" as="geometry" />
        </mxCell>
        <mxCell id="lfrtjuP_y-cq6lLT7jFH-4" value="" style="edgeStyle=orthogonalEdgeStyle;rounded=0;orthogonalLoop=1;jettySize=auto;html=1;" edge="1" parent="1" source="lfrtjuP_y-cq6lLT7jFH-6" target="lfrtjuP_y-cq6lLT7jFH-9">
          <mxGeometry relative="1" as="geometry" />
        </mxCell>
        <mxCell id="lfrtjuP_y-cq6lLT7jFH-5" value="" style="edgeStyle=orthogonalEdgeStyle;rounded=0;orthogonalLoop=1;jettySize=auto;html=1;" edge="1" parent="1" source="lfrtjuP_y-cq6lLT7jFH-6" target="lfrtjuP_y-cq6lLT7jFH-11">
          <mxGeometry relative="1" as="geometry" />
        </mxCell>
        <mxCell id="lfrtjuP_y-cq6lLT7jFH-6" value="Designing UI/UX" style="ellipse;whiteSpace=wrap;html=1;aspect=fixed;" vertex="1" parent="1">
          <mxGeometry x="340" y="110" width="80" height="80" as="geometry" />
        </mxCell>
        <mxCell id="lfrtjuP_y-cq6lLT7jFH-8" style="edgeStyle=orthogonalEdgeStyle;rounded=0;orthogonalLoop=1;jettySize=auto;html=1;exitX=0.5;exitY=1;exitDx=0;exitDy=0;entryX=0;entryY=0.5;entryDx=0;entryDy=0;" edge="1" parent="1" source="lfrtjuP_y-cq6lLT7jFH-9" target="lfrtjuP_y-cq6lLT7jFH-13">
          <mxGeometry relative="1" as="geometry" />
        </mxCell>
        <mxCell id="lfrtjuP_y-cq6lLT7jFH-9" value="Customer sign up" style="ellipse;whiteSpace=wrap;html=1;" vertex="1" parent="1">
          <mxGeometry x="100" y="110" width="80" height="80" as="geometry" />
        </mxCell>
        <mxCell id="lfrtjuP_y-cq6lLT7jFH-10" style="edgeStyle=orthogonalEdgeStyle;rounded=0;orthogonalLoop=1;jettySize=auto;html=1;exitX=0.5;exitY=1;exitDx=0;exitDy=0;entryX=1;entryY=0.5;entryDx=0;entryDy=0;" edge="1" parent="1" source="lfrtjuP_y-cq6lLT7jFH-11" target="lfrtjuP_y-cq6lLT7jFH-13">
          <mxGeometry relative="1" as="geometry" />
        </mxCell>
        <mxCell id="lfrtjuP_y-cq6lLT7jFH-11" value="Listing Restaurants and their cusines" style="ellipse;whiteSpace=wrap;html=1;" vertex="1" parent="1">
          <mxGeometry x="610" y="110" width="80" height="80" as="geometry" />
        </mxCell>
        <mxCell id="lfrtjuP_y-cq6lLT7jFH-12" style="edgeStyle=orthogonalEdgeStyle;rounded=0;orthogonalLoop=1;jettySize=auto;html=1;exitX=0.5;exitY=1;exitDx=0;exitDy=0;entryX=0.5;entryY=0;entryDx=0;entryDy=0;" edge="1" parent="1" source="lfrtjuP_y-cq6lLT7jFH-13" target="lfrtjuP_y-cq6lLT7jFH-15">
          <mxGeometry relative="1" as="geometry" />
        </mxCell>
        <mxCell id="lfrtjuP_y-cq6lLT7jFH-13" value="Checkout Page &amp;amp; RTS" style="ellipse;whiteSpace=wrap;html=1;aspect=fixed;" vertex="1" parent="1">
          <mxGeometry x="340" y="240" width="80" height="80" as="geometry" />
        </mxCell>
        <mxCell id="lfrtjuP_y-cq6lLT7jFH-14" style="edgeStyle=orthogonalEdgeStyle;rounded=0;orthogonalLoop=1;jettySize=auto;html=1;exitX=0.5;exitY=1;exitDx=0;exitDy=0;entryX=0.5;entryY=0;entryDx=0;entryDy=0;" edge="1" parent="1" source="lfrtjuP_y-cq6lLT7jFH-15" target="lfrtjuP_y-cq6lLT7jFH-16">
          <mxGeometry relative="1" as="geometry" />
        </mxCell>
        <mxCell id="lfrtjuP_y-cq6lLT7jFH-15" value="Compiling to Apk" style="ellipse;whiteSpace=wrap;html=1;" vertex="1" parent="1">
          <mxGeometry x="320" y="410" width="120" height="80" as="geometry" />
        </mxCell>
        <mxCell id="lfrtjuP_y-cq6lLT7jFH-24" value="" style="edgeStyle=orthogonalEdgeStyle;rounded=0;orthogonalLoop=1;jettySize=auto;html=1;" edge="1" parent="1" source="lfrtjuP_y-cq6lLT7jFH-16" target="lfrtjuP_y-cq6lLT7jFH-18">
          <mxGeometry relative="1" as="geometry" />
        </mxCell>
        <mxCell id="lfrtjuP_y-cq6lLT7jFH-16" value="No Bugs Found" style="rhombus;whiteSpace=wrap;html=1;" vertex="1" parent="1">
          <mxGeometry x="340" y="570" width="80" height="80" as="geometry" />
        </mxCell>
        <mxCell id="lfrtjuP_y-cq6lLT7jFH-27" value="" style="edgeStyle=orthogonalEdgeStyle;rounded=0;orthogonalLoop=1;jettySize=auto;html=1;" edge="1" parent="1" source="lfrtjuP_y-cq6lLT7jFH-18" target="lfrtjuP_y-cq6lLT7jFH-19">
          <mxGeometry relative="1" as="geometry" />
        </mxCell>
        <mxCell id="lfrtjuP_y-cq6lLT7jFH-18" value="Writing Permissions for Deployment" style="shape=parallelogram;perimeter=parallelogramPerimeter;whiteSpace=wrap;html=1;fixedSize=1;" vertex="1" parent="1">
          <mxGeometry x="305" y="710" width="150" height="60" as="geometry" />
        </mxCell>
        <mxCell id="lfrtjuP_y-cq6lLT7jFH-28" value="" style="edgeStyle=orthogonalEdgeStyle;rounded=0;orthogonalLoop=1;jettySize=auto;html=1;" edge="1" parent="1" source="lfrtjuP_y-cq6lLT7jFH-19" target="lfrtjuP_y-cq6lLT7jFH-21">
          <mxGeometry relative="1" as="geometry" />
        </mxCell>
        <mxCell id="lfrtjuP_y-cq6lLT7jFH-19" value="Pushed to Appstore" style="shape=cylinder3;whiteSpace=wrap;html=1;boundedLbl=1;backgroundOutline=1;size=15;" vertex="1" parent="1">
          <mxGeometry x="350" y="850" width="60" height="80" as="geometry" />
        </mxCell>
        <mxCell id="lfrtjuP_y-cq6lLT7jFH-20" style="edgeStyle=orthogonalEdgeStyle;rounded=0;orthogonalLoop=1;jettySize=auto;html=1;" edge="1" parent="1" source="lfrtjuP_y-cq6lLT7jFH-21" target="lfrtjuP_y-cq6lLT7jFH-23">
          <mxGeometry relative="1" as="geometry" />
        </mxCell>
        <mxCell id="lfrtjuP_y-cq6lLT7jFH-29" style="edgeStyle=orthogonalEdgeStyle;rounded=0;orthogonalLoop=1;jettySize=auto;html=1;exitX=0.5;exitY=0.5;exitDx=0;exitDy=0;exitPerimeter=0;" edge="1" parent="1" source="lfrtjuP_y-cq6lLT7jFH-21">
          <mxGeometry relative="1" as="geometry">
            <mxPoint x="370" y="1100" as="targetPoint" />
          </mxGeometry>
        </mxCell>
        <mxCell id="lfrtjuP_y-cq6lLT7jFH-21" value="Customer Using Application" style="shape=umlActor;verticalLabelPosition=bottom;verticalAlign=top;html=1;outlineConnect=0;" vertex="1" parent="1">
          <mxGeometry x="340" y="1010" width="80" height="100" as="geometry" />
        </mxCell>
        <mxCell id="lfrtjuP_y-cq6lLT7jFH-23" value="Recieved No Feedback" style="ellipse;shape=cloud;whiteSpace=wrap;html=1;" vertex="1" parent="1">
          <mxGeometry x="320" y="1200" width="120" height="80" as="geometry" />
        </mxCell>
      </root>
    </mxGraphModel>
  </diagram>
</mxfile>
